<?xml version="1.0" standalone="no"?>
<!DOCTYPE svg PUBLIC "-//W3C//DTD SVG 20010904//EN"
 "http://www.w3.org/TR/2001/REC-SVG-20010904/DTD/svg10.dtd">
<svg version="1.0" xmlns="http://www.w3.org/2000/svg"
 width="360.000000pt" height="360.000000pt" viewBox="0 0 360.000000 360.000000"
 preserveAspectRatio="xMidYMid meet">
<metadata>
Created by potrace 1.14, written by Peter Selinger 2001-2017
</metadata>
<g transform="translate(0.000000,360.000000) scale(0.100000,-0.100000)"
fill="#000000" stroke="none">
<path d="M2937 3403 c12 -32 64 -115 125 -201 33 -47 68 -101 79 -122 17 -32
79 -102 123 -137 8 -7 55 -39 104 -72 100 -67 142 -111 142 -148 0 -32 -28
-56 -115 -95 -93 -43 -236 -118 -255 -133 -8 -7 -41 -25 -72 -41 -32 -15 -58
-32 -58 -36 0 -4 -9 -8 -19 -8 -11 0 -22 -4 -25 -9 -3 -4 -16 -8 -28 -7 -22 1
-23 4 -21 81 1 44 4 94 7 110 14 71 19 137 19 240 1 124 -6 175 -28 209 -8 12
-13 25 -10 28 3 3 -9 21 -28 41 -32 35 -116 81 -167 91 -14 3 -36 8 -50 11
-149 33 -458 39 -600 10 -58 -11 -130 -39 -147 -55 -54 -53 -138 -188 -148
-239 -2 -11 -6 -25 -9 -29 -3 -5 -7 -19 -10 -33 -9 -49 -49 -204 -54 -214 -4
-5 -8 -18 -9 -28 -5 -32 -74 -167 -86 -168 -7 -1 -25 -3 -42 -4 -16 -2 -34 -4
-40 -5 -19 -4 -71 1 -110 12 -22 7 -42 12 -45 12 -3 1 -9 4 -15 7 -19 12 -170
59 -240 75 -38 9 -78 18 -87 20 -10 2 -26 6 -35 8 -200 46 -458 132 -475 160
-4 6 -8 8 -8 4 0 -4 -77 31 -171 78 -93 48 -172 84 -174 82 -3 -2 10 -20 29
-39 34 -35 39 -39 116 -99 25 -19 47 -37 50 -40 8 -10 165 -134 190 -150 12
-8 28 -19 34 -25 29 -25 159 -90 214 -107 23 -7 42 -16 42 -20 0 -4 7 -5 15
-2 8 3 20 2 27 -2 7 -4 24 -9 38 -11 14 -1 45 -5 70 -9 75 -12 370 -7 370 6 0
7 59 4 88 -5 22 -7 32 -45 12 -45 -5 0 -10 -5 -10 -11 0 -9 -26 -43 -88 -117
-13 -15 -35 -47 -50 -72 -14 -25 -29 -47 -33 -50 -3 -3 -27 -45 -53 -95 -26
-49 -51 -97 -56 -105 -5 -8 -30 -58 -56 -110 -66 -133 -81 -160 -162 -300 -31
-53 -103 -220 -95 -220 3 0 1 -6 -4 -12 -13 -17 -32 -99 -38 -163 -2 -27 -7
-63 -11 -80 -3 -16 -7 -34 -8 -40 -1 -5 -5 -16 -9 -23 -5 -6 -6 -12 -2 -12 3
0 -5 -17 -18 -37 -25 -41 -57 -106 -111 -225 -38 -85 -100 -184 -131 -209 -11
-10 -33 -29 -50 -44 -35 -31 -100 -66 -129 -70 -12 -2 -49 -10 -84 -18 -34 -8
-66 -16 -70 -16 -25 -4 -88 -24 -92 -30 -3 -3 -18 -13 -34 -21 -41 -21 -38
-33 7 -34 20 -1 37 1 37 4 0 3 23 6 50 7 52 2 58 -4 39 -38 -10 -19 -8 -20 38
-15 74 9 149 20 203 31 13 2 42 7 64 11 22 3 44 8 48 10 5 3 8 -2 8 -10 0 -19
40 -47 54 -38 6 3 20 8 30 9 10 2 38 12 62 23 51 22 53 34 25 115 -19 52 -19
54 -1 60 29 9 49 12 135 20 44 4 82 8 86 10 3 2 27 7 55 10 128 16 185 21 189
15 4 -6 299 -4 475 4 69 4 182 8 253 11 l127 4 15 -29 c22 -42 19 -61 -16
-100 -78 -88 -88 -132 -36 -154 27 -11 37 -11 67 1 19 8 38 20 42 27 8 15 27
12 123 -18 28 -8 61 -17 75 -20 14 -3 41 -9 61 -14 31 -8 38 -6 50 12 13 20
15 26 18 45 0 5 21 5 46 0 81 -15 185 -20 185 -9 0 5 -3 10 -8 10 -4 0 -19 11
-34 25 -15 14 -41 28 -58 31 -17 4 -33 11 -36 15 -3 5 -18 9 -34 9 -16 0 -31
4 -35 9 -3 5 -20 13 -38 16 -71 16 -130 62 -130 102 0 40 167 376 197 395 6 4
7 8 1 8 -6 0 -6 3 1 8 16 11 135 206 185 302 24 47 47 87 52 88 4 2 7 12 7 23
0 10 5 19 12 19 6 0 9 3 6 6 -4 3 5 31 19 62 23 51 57 143 68 182 70 253 79
338 59 530 -10 103 -7 171 9 198 5 6 5 12 1 12 -4 0 1 9 11 20 10 11 24 20 32
20 7 0 13 5 13 12 0 6 3 9 6 5 4 -3 19 0 35 8 15 8 36 17 46 18 10 2 25 7 33
10 19 7 130 39 150 43 66 13 213 58 249 76 24 13 58 40 75 61 28 35 31 45 31
110 0 149 -81 265 -345 497 -35 30 -86 75 -114 100 -27 25 -63 56 -79 70 -16
14 -38 35 -50 48 -11 12 -26 22 -33 22 -6 0 -14 7 -18 15 -3 8 -10 15 -15 15
-6 0 -7 -8 -4 -17z"/>
</g>
</svg>
